<?xml version="1.0" standalone="no"?>
<!DOCTYPE svg PUBLIC "-//W3C//DTD SVG 20010904//EN"
 "http://www.w3.org/TR/2001/REC-SVG-20010904/DTD/svg10.dtd">
<svg version="1.0" xmlns="http://www.w3.org/2000/svg"
 width="512.000000pt" height="512.000000pt" viewBox="0 0 512.000000 512.000000"
 preserveAspectRatio="xMidYMid meet">
<metadata>
Created by potrace 1.11, written by Peter Selinger 2001-2013
</metadata>
<g transform="translate(0.000000,512.000000) scale(0.100000,-0.100000)"
fill="#000000" stroke="none">
<path d="M3769 5105 c-79 -25 -314 -250 -1470 -1405 -382 -382 -900 -902
-1150 -1155 l-455 -460 -91 -270 c-50 -148 -155 -457 -233 -685 -78 -228 -150
-440 -160 -470 -10 -30 -61 -181 -114 -335 -53 -154 -96 -290 -96 -302 0 -16
6 -23 19 -23 21 0 130 39 351 125 80 31 227 87 328 126 100 38 348 132 550
210 202 77 414 158 472 181 58 22 156 60 218 84 62 24 117 44 123 44 6 0 47
35 92 78 663 628 1313 1250 1612 1542 94 91 231 224 305 296 74 71 239 235
365 364 414 421 593 616 655 708 30 44 32 51 27 112 -11 130 -76 248 -276 498
-76 95 -175 213 -220 262 -152 165 -382 340 -575 436 -79 39 -105 47 -163 50
-42 2 -85 -2 -114 -11z m247 -109 c89 -43 286 -170 354 -228 140 -120 341
-344 487 -542 42 -56 43 -60 25 -70 -23 -13 -224 -202 -398 -373 -68 -68 -125
-123 -127 -123 -3 0 -64 -59 -136 -131 -93 -92 -131 -136 -127 -148 7 -20 1
-12 -63 74 -152 206 -312 392 -424 493 -115 104 -326 246 -465 313 -59 29
-109 53 -111 55 -4 3 315 316 549 538 174 166 205 186 285 186 52 0 75 -7 151
-44z m-917 -801 c284 -142 468 -285 649 -503 76 -91 232 -298 310 -409 l22
-31 -472 -444 c-259 -243 -475 -443 -479 -443 -4 0 -61 72 -126 160 -66 88
-136 180 -157 205 -120 144 -306 308 -588 518 -93 69 -168 128 -168 132 0 7
169 171 640 621 229 219 251 238 268 239 7 0 52 -20 101 -45z m-931 -977 c133
-98 202 -155 345 -282 100 -89 312 -319 445 -485 l116 -143 -44 -41 c-25 -22
-90 -84 -145 -136 -55 -53 -311 -296 -569 -541 l-470 -445 -100 2 c-124 3
-448 21 -451 25 -2 2 -19 118 -39 258 -50 349 -56 380 -70 380 -7 0 -113 -32
-236 -71 -163 -52 -225 -67 -230 -59 -4 7 -10 47 -14 89 -6 67 -3 88 24 176
l30 100 348 350 c191 193 476 479 632 638 156 158 286 287 288 287 2 0 65 -46
140 -102z m-990 -1800 c24 -161 47 -300 51 -308 7 -12 51 -17 222 -27 118 -7
238 -15 267 -18 49 -6 52 -8 51 -33 0 -15 -3 -22 -5 -15 -3 7 -25 -8 -55 -39
-27 -28 -49 -52 -49 -54 0 -2 -65 -69 -145 -150 -80 -80 -145 -151 -145 -158
0 -14 -33 -27 -380 -159 -186 -71 -280 -102 -290 -96 -8 4 -97 88 -197 186
l-183 178 158 464 c132 389 158 458 163 430 3 -19 8 -40 12 -45 6 -10 134 26
407 116 30 10 60 18 65 19 6 1 29 -126 53 -291z m599 -470 c-3 -7 -5 -2 -5 12
0 14 2 19 5 13 2 -7 2 -19 0 -25z m10 -65 c-3 -10 -5 -2 -5 17 0 19 2 27 5 18
2 -10 2 -26 0 -35z m10 -70 c-3 -10 -5 -2 -5 17 0 19 2 27 5 18 2 -10 2 -26 0
-35z m8 -43 c-3 -5 -12 -10 -18 -10 -7 0 -6 4 3 10 19 12 23 12 15 0z m-105
-40 c-8 -5 -19 -10 -25 -10 -5 0 -3 5 5 10 8 5 20 10 25 10 6 0 3 -5 -5 -10z
m-110 -40 c-8 -5 -19 -10 -25 -10 -5 0 -3 5 5 10 8 5 20 10 25 10 6 0 3 -5 -5
-10z"/>
</g>
</svg>
